# xmcd
#
# Track frame offsets:
#	150
#	12439
#	22309
#	34621
#	46961
#	59891
#	73061
#	87422
#	99917
#	111864
#	121427
#	133300
#	143177
#	152645
#	162488
#	173164
#
# Disc length: 2435
#
# Revision: 2
# Processed by: cddbd v1.5.1PL0 Copyright (c) Steve Scherf et al.
# Submitted via: audiograbber 1.82.02
# Normalized: r1:DSETVAR1
#
DISCID=ea098110
DTITLE=Various Artist - Country Superstars CD 2
DYEAR=1900
DGENRE=
TTITLE0=Merle Haggard - Okie From Muskogee
TTITLE1=Merle Haggard - Mama Tried
TTITLE2=Merle Haggard - Workin' Mans Blues
TTITLE3=Merle Haggard - The Bottle Let Me Down
TTITLE4=Merle Haggard - Swingin' Doors
TTITLE5=Merle Haggard - Kentucky Gambler
TTITLE6=Merle Haggard - I'm A Lonesome Fugitive
TTITLE7=Merle Haggard - If We Mack It Through December
TTITLE8=Skeeter Davis - The End Of The World
TTITLE9=Skeeter Davis - Am I That Easy To Forget
TTITLE10=Skeeter Davis - I Can't Help You
TTITLE11=Skeeter Davis - Homebreaker
TTITLE12=Skeeter Davis - Goin Down the Road Fellin Bad
TTITLE13=Skeeter Davis - It's All Over
TTITLE14=Skeeter Davis - Set Him Free
TTITLE15=Skeeter Davis - Turn Your Radio On
EXTD=
EXTT0=
EXTT1=
EXTT2=
EXTT3=
EXTT4=
EXTT5=
EXTT6=
EXTT7=
EXTT8=
EXTT9=
EXTT10=
EXTT11=
EXTT12=
EXTT13=
EXTT14=
EXTT15=
PLAYORDER=
